<svg xmlns="http://www.w3.org/2000/svg" width="600" height="600">
  <!-- Row 1 -->
  <circle cx="23"  cy="45"  r="0.8" fill="white"            opacity="0.70"/>
  <circle cx="87"  cy="12"  r="1.2" fill="white"            opacity="0.90"/>
  <circle cx="145" cy="78"  r="0.6" fill="white"            opacity="0.50"/>
  <circle cx="198" cy="34"  r="1.0" fill="white"            opacity="0.85"/>
  <circle cx="267" cy="88"  r="0.7" fill="white"            opacity="0.65"/>
  <circle cx="312" cy="15"  r="1.5" fill="white"            opacity="1.00"/>
  <circle cx="378" cy="67"  r="0.8" fill="white"            opacity="0.70"/>
  <circle cx="445" cy="42"  r="0.6" fill="white"            opacity="0.55"/>
  <circle cx="512" cy="90"  r="1.1" fill="rgb(200,215,255)" opacity="0.80"/>
  <circle cx="567" cy="28"  r="0.7" fill="white"            opacity="0.60"/>
  <circle cx="583" cy="75"  r="1.3" fill="white"            opacity="0.90"/>
  <!-- Row 2 -->
  <circle cx="15"  cy="155" r="0.6" fill="white"            opacity="0.50"/>
  <circle cx="62"  cy="128" r="1.0" fill="white"            opacity="0.80"/>
  <circle cx="134" cy="178" r="0.8" fill="white"            opacity="0.70"/>
  <circle cx="212" cy="142" r="1.4" fill="rgb(200,215,255)" opacity="0.95"/>
  <circle cx="289" cy="165" r="0.6" fill="white"            opacity="0.45"/>
  <circle cx="356" cy="134" r="0.9" fill="white"            opacity="0.75"/>
  <circle cx="400" cy="150" r="1.8" fill="white"            opacity="1.00"/>
  <circle cx="421" cy="188" r="1.2" fill="white"            opacity="0.85"/>
  <circle cx="488" cy="152" r="0.7" fill="white"            opacity="0.60"/>
  <circle cx="545" cy="123" r="0.8" fill="white"            opacity="0.70"/>
  <circle cx="590" cy="170" r="1.0" fill="white"            opacity="0.80"/>
  <!-- Row 3 -->
  <circle cx="45"  cy="245" r="1.1" fill="white"            opacity="0.80"/>
  <circle cx="108" cy="278" r="0.6" fill="white"            opacity="0.50"/>
  <circle cx="189" cy="215" r="0.8" fill="white"            opacity="0.65"/>
  <circle cx="244" cy="267" r="1.3" fill="white"            opacity="0.90"/>
  <circle cx="301" cy="234" r="0.7" fill="white"            opacity="0.60"/>
  <circle cx="389" cy="258" r="0.9" fill="rgb(200,215,255)" opacity="0.70"/>
  <circle cx="467" cy="228" r="1.0" fill="white"            opacity="0.80"/>
  <circle cx="523" cy="275" r="0.6" fill="white"            opacity="0.50"/>
  <circle cx="578" cy="242" r="1.2" fill="white"            opacity="0.85"/>
  <!-- Row 4 -->
  <circle cx="28"  cy="345" r="0.8" fill="white"            opacity="0.65"/>
  <circle cx="95"  cy="378" r="1.1" fill="white"            opacity="0.80"/>
  <circle cx="150" cy="320" r="1.5" fill="rgb(200,215,255)" opacity="0.90"/>
  <circle cx="167" cy="312" r="0.6" fill="white"            opacity="0.50"/>
  <circle cx="231" cy="356" r="1.4" fill="white"            opacity="0.95"/>
  <circle cx="308" cy="325" r="0.7" fill="rgb(200,215,255)" opacity="0.60"/>
  <circle cx="375" cy="368" r="0.9" fill="white"            opacity="0.75"/>
  <circle cx="434" cy="342" r="1.0" fill="white"            opacity="0.80"/>
  <circle cx="512" cy="315" r="0.6" fill="white"            opacity="0.50"/>
  <circle cx="565" cy="378" r="1.2" fill="white"            opacity="0.85"/>
  <circle cx="590" cy="340" r="0.8" fill="white"            opacity="0.70"/>
  <!-- Row 5 -->
  <circle cx="10"  cy="445" r="0.9" fill="white"            opacity="0.75"/>
  <circle cx="78"  cy="412" r="0.6" fill="white"            opacity="0.50"/>
  <circle cx="156" cy="467" r="1.1" fill="white"            opacity="0.80"/>
  <circle cx="218" cy="435" r="0.7" fill="white"            opacity="0.60"/>
  <circle cx="290" cy="478" r="1.3" fill="rgb(200,215,255)" opacity="0.90"/>
  <circle cx="365" cy="415" r="0.8" fill="white"            opacity="0.65"/>
  <circle cx="445" cy="458" r="0.6" fill="white"            opacity="0.50"/>
  <circle cx="499" cy="425" r="1.0" fill="white"            opacity="0.80"/>
  <circle cx="560" cy="468" r="0.9" fill="white"            opacity="0.70"/>
  <circle cx="590" cy="440" r="1.1" fill="white"            opacity="0.85"/>
  <!-- Row 6 -->
  <circle cx="35"  cy="545" r="0.7" fill="white"            opacity="0.60"/>
  <circle cx="112" cy="520" r="1.0" fill="white"            opacity="0.80"/>
  <circle cx="178" cy="568" r="0.6" fill="white"            opacity="0.50"/>
  <circle cx="245" cy="535" r="1.2" fill="white"            opacity="0.85"/>
  <circle cx="318" cy="578" r="0.8" fill="rgb(200,215,255)" opacity="0.70"/>
  <circle cx="390" cy="518" r="0.7" fill="white"            opacity="0.60"/>
  <circle cx="455" cy="558" r="1.1" fill="white"            opacity="0.80"/>
  <circle cx="522" cy="532" r="0.6" fill="white"            opacity="0.50"/>
  <circle cx="578" cy="572" r="0.9" fill="white"            opacity="0.75"/>
</svg>
